<svg width="276" height="100" viewBox="0 0 276 100" fill="none" xmlns="http://www.w3.org/2000/svg">
<path d="M115.674 86.8843V64.3843H120.37V82.6451H130.087V86.8843H115.674ZM156.886 86.0038L163.571 64.3843H170.745L177.43 86.0038L176.843 86.8843H172.93L171.56 82.3191H162.756L161.386 86.8843H157.473L156.886 86.0038ZM164.028 78.0799H170.289L167.419 68.6234H166.897L164.028 78.0799ZM206.126 86.8843V64.3843H211.213L220.148 79.156V64.3843H224.843V86.8843H219.757L210.822 72.1125V86.8843H206.126ZM255.635 86.8843V64.3843H264.179C270.309 64.3843 273.374 67.4495 273.374 73.5799V77.6886C273.374 83.8191 270.309 86.8843 264.179 86.8843H255.635ZM260.331 82.6451H264.44C267.266 82.6451 268.679 81.2321 268.679 78.406V72.8625C268.679 70.0365 267.266 68.6234 264.44 68.6234H260.331V82.6451Z" fill="white"/>
<path d="M116.561 44.1743V12.6743H131.626C136.983 12.6743 139.661 15.3526 139.661 20.7091V23.22C139.661 24.2547 139.357 25.1374 138.748 25.8678L137.15 27.7852L139.067 29.383C140.072 30.2047 140.574 31.4221 140.574 33.0352V36.1395C140.574 41.4961 137.896 44.1743 132.539 44.1743H116.561ZM124.504 37.0069H132.128C132.463 37.0069 132.63 36.8395 132.63 36.5047V32.2134C132.63 31.8787 132.463 31.7113 132.128 31.7113H124.504V37.0069ZM124.504 24.5439H131.215C131.55 24.5439 131.717 24.3765 131.717 24.0417V20.3439C131.717 20.0091 131.55 19.8417 131.215 19.8417H124.504V24.5439ZM146.52 44.1743V12.6743H162.042C167.398 12.6743 170.077 15.3526 170.077 20.7091V26.0047C170.077 29.7178 168.798 32.1526 166.242 33.3091L170.99 42.5765L170.077 44.1743H163.229L158.024 33.9939H154.464V44.1743H146.52ZM154.464 26.8265H161.631C161.966 26.8265 162.133 26.6591 162.133 26.3243V20.3439C162.133 20.0091 161.966 19.8417 161.631 19.8417H154.464V26.8265ZM176.301 44.1743V12.6743H184.245V44.1743H176.301ZM190.913 36.1395V20.7091C190.913 15.3526 193.592 12.6743 198.948 12.6743H210.772L214.333 15.4134V19.8417H199.359C199.024 19.8417 198.857 20.0091 198.857 20.3439V36.5047C198.857 36.8395 199.024 37.0069 199.359 37.0069H214.333V41.4352L210.772 44.1743H198.948C193.592 44.1743 190.913 41.4961 190.913 36.1395ZM220.17 44.1743V12.6743H228.113V23.2656L237.609 12.6743H245.096L245.826 14.2265L235.6 25.6395L247.013 42.6221L246.283 44.1743H238.979L230.487 31.3917L228.113 33.8569V44.1743H220.17ZM250.454 41.4352V37.0069H264.652C264.986 37.0069 265.154 36.8395 265.154 36.5047V33.4004C265.154 32.9743 264.971 32.7308 264.606 32.67L256.16 30.9352C252.356 30.2047 250.454 27.6634 250.454 23.3113V20.7091C250.454 15.3526 253.132 12.6743 258.489 12.6743H268.623L272.184 15.4134V19.8417H258.899C258.565 19.8417 258.397 20.0091 258.397 20.3439V23.2656C258.397 23.6613 258.58 23.9047 258.945 23.996L267.391 25.6395C271.195 26.4308 273.097 28.9874 273.097 33.3091V36.1395C273.097 41.4961 270.419 44.1743 265.062 44.1743H254.015L250.454 41.4352Z" fill="white"/>
<path d="M0 87.1412C0 85.9406 0.973294 84.9673 2.17391 84.9673H30.6067C31.8074 84.9673 32.7806 85.9406 32.7806 87.1412V97.8261C32.7806 99.0267 31.8074 100 30.6067 100H3.62319C1.62215 100 0 98.3778 0 96.3768V87.1412Z" fill="white"/>
<rect y="50.98" width="32.7806" height="15.0327" rx="2.17391" fill="white"/>
<rect y="16.9937" width="32.7806" height="15.0327" rx="2.17391" fill="white"/>
<rect width="32.7806" height="15.0327" rx="2.17391" transform="matrix(-1 0 0 1 88.1802 67.9736)" fill="white"/>
<rect width="32.7806" height="15.0327" rx="2.17391" transform="matrix(-1 0 0 1 77.6904 33.9873)" fill="white"/>
<rect width="8.19516" height="15.0327" rx="2.17391" transform="matrix(-1 0 0 1 98.3418 67.9736)" fill="white"/>
<rect width="8.19516" height="15.0327" rx="2.17391" transform="matrix(-1 0 0 1 8.19531 33.9873)" fill="white"/>
<path d="M98.4917 3.62319C98.4917 1.62216 96.8695 0 94.8685 0H85.0378C83.8372 0 82.8639 0.973294 82.8639 2.17391V12.6812C82.8639 13.8818 83.8372 14.8551 85.0378 14.8551H96.3178C97.5184 14.8551 98.4917 13.8818 98.4917 12.6812V3.62319Z" fill="white"/>
<rect x="34.7476" y="84.9673" width="32.7806" height="15.0327" rx="2.17391" fill="white"/>
<rect x="34.7476" y="50.98" width="32.7806" height="15.0327" rx="2.17391" fill="white"/>
<rect x="34.7476" y="16.9937" width="32.7806" height="15.0327" rx="2.17391" fill="white"/>
<rect width="32.7806" height="15.0327" rx="2.17391" transform="matrix(-1 0 0 1 53.4326 67.9736)" fill="white"/>
<rect width="32.7806" height="15.0327" rx="2.17391" transform="matrix(-1 0 0 1 42.9429 33.9873)" fill="white"/>
<rect width="32.7806" height="15.0327" rx="2.17391" transform="matrix(-1 0 0 1 81.0396 0)" fill="white"/>
<path d="M69.4951 87.1412C69.4951 85.9406 70.4684 84.9673 71.669 84.9673H96.1682C97.3688 84.9673 98.3421 85.9406 98.3421 87.1412V96.3768C98.3421 98.3778 96.7199 100 94.7189 100H71.669C70.4684 100 69.4951 99.0267 69.4951 97.8261V87.1412Z" fill="white"/>
<rect x="69.4951" y="50.98" width="28.847" height="15.0327" rx="2.17391" fill="white"/>
<rect x="69.4951" y="16.9937" width="28.847" height="15.0327" rx="2.17391" fill="white"/>
<rect width="18.685" height="15.0327" rx="2.17391" transform="matrix(-1 0 0 1 18.6851 67.9736)" fill="white"/>
<rect width="18.685" height="15.0327" rx="2.17391" transform="matrix(-1 0 0 1 98.3418 33.9873)" fill="white"/>
<rect width="32.7094" height="15.0327" rx="2.17391" transform="matrix(-1 0 0 1 46.292 0)" fill="white"/>
<path d="M11.6299 2.17391C11.6299 0.973294 10.6566 0 9.45597 0H3.62307C1.62204 0 -0.000120163 1.62216 -0.000120163 3.62319V12.6812C-0.000120163 13.8818 0.973174 14.8551 2.17379 14.8551H9.45597C10.6566 14.8551 11.6299 13.8818 11.6299 12.6812V2.17391Z" fill="white"/>
<path d="M27.8248 17.0293H16.7911C15.9481 17.0293 15.2646 17.7127 15.2646 18.5557V81.4449C15.2646 82.2879 15.9481 82.9713 16.7911 82.9713H27.8248C28.6678 82.9713 29.3512 82.2879 29.3512 81.4449V18.5557C29.3512 17.7127 28.6678 17.0293 27.8248 17.0293Z" fill="#111111"/>
<path d="M66.2229 17.0293H32.715C31.872 17.0293 31.1886 17.7127 31.1886 18.5557V29.5461C31.1886 30.3891 31.872 31.0725 32.715 31.0725H58.836C59.3546 31.0725 59.8378 31.3358 60.1189 31.7717L60.4908 32.3485C60.8266 32.8693 60.8142 33.5415 60.4595 34.0496L50.6305 48.1266C50.345 48.5355 49.8777 48.7792 49.3789 48.7792H35.4711C34.6281 48.7792 33.9447 49.4626 33.9447 50.3056V61.2959C33.9447 62.139 34.6281 62.8224 35.4711 62.8224H56.7317C57.2286 62.8224 57.6945 62.5805 57.9803 62.174L77.7319 34.0857C78.1016 33.5599 78.1023 32.8587 77.7336 32.3321L67.4733 17.6802C67.1876 17.2722 66.7209 17.0293 66.2229 17.0293Z" fill="#111111"/>
<path d="M70.3698 49.0204L63.6894 58.5345C63.3019 59.0863 63.3224 59.8269 63.7397 60.3565L65.6989 62.8423C66.1177 63.3736 66.1367 64.1171 65.7458 64.6692L63.1865 68.2838C62.9004 68.6879 62.4359 68.9281 61.9408 68.9281H32.715C31.872 68.9281 31.1886 69.6115 31.1886 70.4546V81.4449C31.1886 82.2879 31.872 82.9713 32.715 82.9713H70.1793C70.6909 82.9713 71.1685 82.715 71.4513 82.2887L82.9742 64.9175C83.3234 64.391 83.3122 63.7038 82.9461 63.1889L72.8629 49.0128C72.252 48.154 70.9753 48.1579 70.3698 49.0204Z" fill="#111111"/>
<path d="M27.8248 17.0293H16.7911C15.9481 17.0293 15.2646 17.7127 15.2646 18.5557V81.4449C15.2646 82.2879 15.9481 82.9713 16.7911 82.9713H27.8248C28.6678 82.9713 29.3512 82.2879 29.3512 81.4449V18.5557C29.3512 17.7127 28.6678 17.0293 27.8248 17.0293Z" fill="#111111"/>
<path d="M66.2229 17.0293H32.715C31.872 17.0293 31.1886 17.7127 31.1886 18.5557V29.5461C31.1886 30.3891 31.872 31.0725 32.715 31.0725H58.836C59.3546 31.0725 59.8378 31.3358 60.1189 31.7717L60.4908 32.3485C60.8266 32.8693 60.8142 33.5415 60.4595 34.0496L50.6305 48.1266C50.345 48.5355 49.8777 48.7792 49.3789 48.7792H35.4711C34.6281 48.7792 33.9447 49.4626 33.9447 50.3056V61.2959C33.9447 62.139 34.6281 62.8224 35.4711 62.8224H56.7317C57.2286 62.8224 57.6945 62.5805 57.9803 62.174L77.7319 34.0857C78.1016 33.5599 78.1023 32.8587 77.7336 32.3321L67.4733 17.6802C67.1876 17.2722 66.7209 17.0293 66.2229 17.0293Z" fill="#111111"/>
<path d="M70.3698 49.0204L63.6894 58.5345C63.3019 59.0863 63.3224 59.8269 63.7397 60.3565L65.6989 62.8423C66.1177 63.3736 66.1367 64.1171 65.7458 64.6692L63.1865 68.2838C62.9004 68.6879 62.4359 68.9281 61.9408 68.9281H32.715C31.872 68.9281 31.1886 69.6115 31.1886 70.4546V81.4449C31.1886 82.2879 31.872 82.9713 32.715 82.9713H70.1793C70.6909 82.9713 71.1685 82.715 71.4513 82.2887L82.9742 64.9175C83.3234 64.391 83.3122 63.7038 82.9461 63.1889L72.8629 49.0128C72.252 48.154 70.9753 48.1579 70.3698 49.0204Z" fill="#111111"/>
<path d="M27.8248 17.0293H16.7911C15.9481 17.0293 15.2646 17.7127 15.2646 18.5557V81.4449C15.2646 82.2879 15.9481 82.9713 16.7911 82.9713H27.8248C28.6678 82.9713 29.3512 82.2879 29.3512 81.4449V18.5557C29.3512 17.7127 28.6678 17.0293 27.8248 17.0293Z" stroke="white" stroke-width="3.62319"/>
<path d="M66.2229 17.0293H32.715C31.872 17.0293 31.1886 17.7127 31.1886 18.5557V29.5461C31.1886 30.3891 31.872 31.0725 32.715 31.0725H58.836C59.3546 31.0725 59.8378 31.3358 60.1189 31.7717L60.4908 32.3485C60.8266 32.8693 60.8142 33.5415 60.4595 34.0496L50.6305 48.1266C50.345 48.5355 49.8777 48.7792 49.3789 48.7792H35.4711C34.6281 48.7792 33.9447 49.4626 33.9447 50.3056V61.2959C33.9447 62.139 34.6281 62.8224 35.4711 62.8224H56.7317C57.2286 62.8224 57.6945 62.5805 57.9803 62.174L77.7319 34.0857C78.1016 33.5599 78.1023 32.8587 77.7336 32.3321L67.4733 17.6802C67.1876 17.2722 66.7209 17.0293 66.2229 17.0293Z" stroke="white" stroke-width="3.62319"/>
<path d="M70.3698 49.0204L63.6894 58.5345C63.3019 59.0863 63.3224 59.8269 63.7397 60.3565L65.6989 62.8423C66.1177 63.3736 66.1367 64.1171 65.7458 64.6692L63.1865 68.2838C62.9004 68.6879 62.4359 68.9281 61.9408 68.9281H32.715C31.872 68.9281 31.1886 69.6115 31.1886 70.4546V81.4449C31.1886 82.2879 31.872 82.9713 32.715 82.9713H70.1793C70.6909 82.9713 71.1685 82.715 71.4513 82.2887L82.9742 64.9175C83.3234 64.391 83.3122 63.7038 82.9461 63.1889L72.8629 49.0128C72.252 48.154 70.9753 48.1579 70.3698 49.0204Z" stroke="white" stroke-width="3.62319"/>
</svg>
