<svg width="193" height="70" viewBox="0 0 193 70" fill="none" xmlns="http://www.w3.org/2000/svg">
<path d="M80.8717 60.8188V45.0688H84.1587V57.8515H90.9609V60.8188H80.8717ZM109.492 60.2025L114.172 45.0688H119.193L123.873 60.2025L123.462 60.8188H120.723L119.764 57.6232H113.601L112.642 60.8188H109.903L109.492 60.2025ZM114.491 54.6558H118.874L116.865 48.0362H116.5L114.491 54.6558ZM143.732 60.8188V45.0688H147.293L153.547 55.4091V45.0688H156.834V60.8188H153.273L147.019 50.4786V60.8188H143.732ZM178.16 60.8188V45.0688H184.14C188.432 45.0688 190.577 47.2145 190.577 51.5058V54.3819C190.577 58.6732 188.432 60.8188 184.14 60.8188H178.16ZM181.447 57.8515H184.323C186.301 57.8515 187.29 56.8623 187.29 54.8841V51.0036C187.29 49.0254 186.301 48.0362 184.323 48.0362H181.447V57.8515Z" fill="#111111"/>
<path d="M81.4926 30.5217V8.47172H92.0383C95.7878 8.47172 97.6626 10.3465 97.6626 14.0961V15.8537C97.6626 16.578 97.4496 17.1959 97.0235 17.7072L95.905 19.0493L97.2472 20.1678C97.9502 20.743 98.3017 21.5952 98.3017 22.7243V24.8974C98.3017 28.6469 96.427 30.5217 92.6774 30.5217H81.4926ZM87.053 25.5046H92.3898C92.6241 25.5046 92.7413 25.3874 92.7413 25.153V22.1491C92.7413 21.9148 92.6241 21.7976 92.3898 21.7976H87.053V25.5046ZM87.053 16.7804H91.7507C91.985 16.7804 92.1022 16.6632 92.1022 16.4289V13.8404C92.1022 13.6061 91.985 13.4889 91.7507 13.4889H87.053V16.7804ZM102.464 30.5217V8.47172H113.329C117.079 8.47172 118.954 10.3465 118.954 14.0961V17.803C118.954 20.4022 118.059 22.1065 116.269 22.9161L119.593 29.4033L118.954 30.5217H114.16L110.517 23.3954H108.025V30.5217H102.464ZM108.025 18.3782H113.042C113.276 18.3782 113.393 18.2611 113.393 18.0267V13.8404C113.393 13.6061 113.276 13.4889 113.042 13.4889H108.025V18.3782ZM123.311 30.5217V8.47172H128.871V30.5217H123.311ZM133.539 24.8974V14.0961C133.539 10.3465 135.414 8.47172 139.164 8.47172H147.44L149.933 10.3891V13.4889H139.451C139.217 13.4889 139.1 13.6061 139.1 13.8404V25.153C139.1 25.3874 139.217 25.5046 139.451 25.5046H149.933V28.6043L147.44 30.5217H139.164C135.414 30.5217 133.539 28.6469 133.539 24.8974ZM154.019 30.5217V8.47172H159.579V15.8856L166.226 8.47172H171.467L171.979 9.55825L164.82 17.5474L172.809 29.4352L172.298 30.5217H167.185L161.241 21.5739L159.579 23.2996V30.5217H154.019ZM175.218 28.6043V25.5046H185.156C185.39 25.5046 185.508 25.3874 185.508 25.153V22.98C185.508 22.6817 185.38 22.5113 185.124 22.4687L179.212 21.2543C176.549 20.743 175.218 18.9641 175.218 15.9176V14.0961C175.218 10.3465 177.092 8.47172 180.842 8.47172H187.936L190.429 10.3891V13.4889H181.13C180.895 13.4889 180.778 13.6061 180.778 13.8404V15.8856C180.778 16.1626 180.906 16.333 181.162 16.3969L187.073 17.5474C189.737 18.1013 191.068 19.8909 191.068 22.9161V24.8974C191.068 28.6469 189.193 30.5217 185.444 30.5217H177.71L175.218 28.6043Z" fill="#111111"/>
<path d="M0 60.9988C0 60.1584 0.681306 59.4771 1.52174 59.4771H21.4247C22.2651 59.4771 22.9465 60.1584 22.9465 60.9988V68.4782C22.9465 69.3186 22.2651 69.9999 21.4247 69.9999H2.53623C1.13551 69.9999 0 68.8644 0 67.4637V60.9988Z" fill="#BF390B"/>
<rect y="35.6863" width="22.9465" height="10.5229" rx="1.52174" fill="#BF390B"/>
<rect y="11.8955" width="22.9465" height="10.5229" rx="1.52174" fill="#BF390B"/>
<rect width="22.9465" height="10.5229" rx="1.52174" transform="matrix(-1 0 0 1 61.7261 47.5818)" fill="#BF390B"/>
<rect width="22.9465" height="10.5229" rx="1.52174" transform="matrix(-1 0 0 1 54.3833 23.7908)" fill="#BF390B"/>
<rect width="5.73661" height="10.5229" rx="1.52174" transform="matrix(-1 0 0 1 68.8394 47.5818)" fill="#BF390B"/>
<rect width="5.73661" height="10.5229" rx="1.52174" transform="matrix(-1 0 0 1 5.73682 23.7908)" fill="#BF390B"/>
<path d="M68.9443 2.53623C68.9443 1.13551 67.8088 0 66.4081 0H59.5266C58.6862 0 58.0049 0.681306 58.0049 1.52174V8.87681C58.0049 9.71725 58.6862 10.3986 59.5266 10.3986H67.4226C68.263 10.3986 68.9443 9.71725 68.9443 8.87681V2.53623Z" fill="#BF390B"/>
<rect x="24.3232" y="59.4771" width="22.9465" height="10.5229" rx="1.52174" fill="#BF390B"/>
<rect x="24.3232" y="35.6863" width="22.9465" height="10.5229" rx="1.52174" fill="#BF390B"/>
<rect x="24.3232" y="11.8955" width="22.9465" height="10.5229" rx="1.52174" fill="#BF390B"/>
<rect width="22.9465" height="10.5229" rx="1.52174" transform="matrix(-1 0 0 1 37.4028 47.5818)" fill="#BF390B"/>
<rect width="22.9465" height="10.5229" rx="1.52174" transform="matrix(-1 0 0 1 30.0601 23.7908)" fill="#BF390B"/>
<rect width="22.9465" height="10.5229" rx="1.52174" transform="matrix(-1 0 0 1 56.7275 0)" fill="#BF390B"/>
<path d="M48.6465 60.9988C48.6465 60.1584 49.3278 59.4771 50.1682 59.4771H67.3176C68.1581 59.4771 68.8394 60.1584 68.8394 60.9988V67.4637C68.8394 68.8644 67.7039 69.9999 66.3031 69.9999H50.1682C49.3278 69.9999 48.6465 69.3186 48.6465 68.4782V60.9988Z" fill="#BF390B"/>
<rect x="48.6465" y="35.6863" width="20.1929" height="10.5229" rx="1.52174" fill="#BF390B"/>
<rect x="48.6465" y="11.8955" width="20.1929" height="10.5229" rx="1.52174" fill="#BF390B"/>
<rect width="13.0795" height="10.5229" rx="1.52174" transform="matrix(-1 0 0 1 13.0796 47.5818)" fill="#BF390B"/>
<rect width="13.0795" height="10.5229" rx="1.52174" transform="matrix(-1 0 0 1 68.8394 23.7908)" fill="#BF390B"/>
<rect width="22.8966" height="10.5229" rx="1.52174" transform="matrix(-1 0 0 1 32.4043 0)" fill="#BF390B"/>
<path d="M8.14111 1.52174C8.14111 0.681304 7.45981 0 6.61937 0H2.53634C1.13562 0 0.00011158 1.13551 0.00011158 2.53623V8.87681C0.00011158 9.71725 0.681417 10.3986 1.52185 10.3986H6.61937C7.45981 10.3986 8.14111 9.71725 8.14111 8.87681V1.52174Z" fill="#BF390B"/>
<path d="M19.4772 11.9204H11.7536C11.1634 11.9204 10.6851 12.3988 10.6851 12.9889V57.0113C10.6851 57.6015 11.1634 58.0798 11.7536 58.0798H19.4772C20.0673 58.0798 20.5457 57.6015 20.5457 57.0113V12.9889C20.5457 12.3988 20.0673 11.9204 19.4772 11.9204Z" fill="#111111"/>
<path d="M46.3559 11.9204H22.9003C22.3102 11.9204 21.8318 12.3988 21.8318 12.9889V20.6822C21.8318 21.2723 22.3102 21.7507 22.9003 21.7507H41.185C41.548 21.7507 41.8863 21.935 42.083 22.2401L42.3433 22.6438C42.5784 23.0084 42.5698 23.4789 42.3214 23.8346L35.4412 33.6885C35.2413 33.9748 34.9142 34.1453 34.5651 34.1453H24.8296C24.2395 34.1453 23.7611 34.6237 23.7611 35.2138V42.9071C23.7611 43.4972 24.2395 43.9756 24.8296 43.9756H39.712C40.0599 43.9756 40.3859 43.8062 40.586 43.5217L54.4121 23.8599C54.6709 23.4918 54.6714 23.001 54.4133 22.6324L47.2311 12.376C47.0311 12.0905 46.7044 11.9204 46.3559 11.9204Z" fill="#111111"/>
<path d="M49.2586 34.3142L44.5823 40.974C44.3111 41.3603 44.3255 41.8788 44.6176 42.2494L45.989 43.9895C46.2822 44.3614 46.2955 44.8819 46.0219 45.2684L44.2304 47.7985C44.0301 48.0814 43.705 48.2496 43.3583 48.2496H22.9003C22.3102 48.2496 21.8318 48.728 21.8318 49.3181V57.0113C21.8318 57.6015 22.3102 58.0798 22.9003 58.0798H49.1253C49.4834 58.0798 49.8178 57.9004 50.0157 57.602L58.0817 45.4421C58.3262 45.0736 58.3184 44.5925 58.062 44.2322L51.0038 34.3089C50.5762 33.7077 49.6825 33.7105 49.2586 34.3142Z" fill="#111111"/>
<path d="M19.4772 11.9204H11.7536C11.1634 11.9204 10.6851 12.3988 10.6851 12.9889V57.0113C10.6851 57.6015 11.1634 58.0798 11.7536 58.0798H19.4772C20.0673 58.0798 20.5457 57.6015 20.5457 57.0113V12.9889C20.5457 12.3988 20.0673 11.9204 19.4772 11.9204Z" fill="#111111"/>
<path d="M46.3559 11.9204H22.9003C22.3102 11.9204 21.8318 12.3988 21.8318 12.9889V20.6822C21.8318 21.2723 22.3102 21.7507 22.9003 21.7507H41.185C41.548 21.7507 41.8863 21.935 42.083 22.2401L42.3433 22.6438C42.5784 23.0084 42.5698 23.4789 42.3214 23.8346L35.4412 33.6885C35.2413 33.9748 34.9142 34.1453 34.5651 34.1453H24.8296C24.2395 34.1453 23.7611 34.6237 23.7611 35.2138V42.9071C23.7611 43.4972 24.2395 43.9756 24.8296 43.9756H39.712C40.0599 43.9756 40.3859 43.8062 40.586 43.5217L54.4121 23.8599C54.6709 23.4918 54.6714 23.001 54.4133 22.6324L47.2311 12.376C47.0311 12.0905 46.7044 11.9204 46.3559 11.9204Z" fill="#111111"/>
<path d="M49.2586 34.3142L44.5823 40.974C44.3111 41.3603 44.3255 41.8788 44.6176 42.2494L45.989 43.9895C46.2822 44.3614 46.2955 44.8819 46.0219 45.2684L44.2304 47.7985C44.0301 48.0814 43.705 48.2496 43.3583 48.2496H22.9003C22.3102 48.2496 21.8318 48.728 21.8318 49.3181V57.0113C21.8318 57.6015 22.3102 58.0798 22.9003 58.0798H49.1253C49.4834 58.0798 49.8178 57.9004 50.0157 57.602L58.0817 45.4421C58.3262 45.0736 58.3184 44.5925 58.062 44.2322L51.0038 34.3089C50.5762 33.7077 49.6825 33.7105 49.2586 34.3142Z" fill="#111111"/>
<path d="M19.4772 11.9204H11.7536C11.1634 11.9204 10.6851 12.3988 10.6851 12.9889V57.0113C10.6851 57.6015 11.1634 58.0798 11.7536 58.0798H19.4772C20.0673 58.0798 20.5457 57.6015 20.5457 57.0113V12.9889C20.5457 12.3988 20.0673 11.9204 19.4772 11.9204Z" stroke="white" stroke-width="2.53623"/>
<path d="M46.3559 11.9204H22.9003C22.3102 11.9204 21.8318 12.3988 21.8318 12.9889V20.6822C21.8318 21.2723 22.3102 21.7507 22.9003 21.7507H41.185C41.548 21.7507 41.8863 21.935 42.083 22.2401L42.3433 22.6438C42.5784 23.0084 42.5698 23.4789 42.3214 23.8346L35.4412 33.6885C35.2413 33.9748 34.9142 34.1453 34.5651 34.1453H24.8296C24.2395 34.1453 23.7611 34.6237 23.7611 35.2138V42.9071C23.7611 43.4972 24.2395 43.9756 24.8296 43.9756H39.712C40.0599 43.9756 40.3859 43.8062 40.586 43.5217L54.4121 23.8599C54.6709 23.4918 54.6714 23.001 54.4133 22.6324L47.2311 12.376C47.0311 12.0905 46.7044 11.9204 46.3559 11.9204Z" stroke="white" stroke-width="2.53623"/>
<path d="M49.2586 34.3142L44.5823 40.974C44.3111 41.3603 44.3255 41.8788 44.6176 42.2494L45.989 43.9895C46.2822 44.3614 46.2955 44.8819 46.0219 45.2684L44.2304 47.7985C44.0301 48.0814 43.705 48.2496 43.3583 48.2496H22.9003C22.3102 48.2496 21.8318 48.728 21.8318 49.3181V57.0113C21.8318 57.6015 22.3102 58.0798 22.9003 58.0798H49.1253C49.4834 58.0798 49.8178 57.9004 50.0157 57.602L58.0817 45.4421C58.3262 45.0736 58.3184 44.5925 58.062 44.2322L51.0038 34.3089C50.5762 33.7077 49.6825 33.7105 49.2586 34.3142Z" stroke="white" stroke-width="2.53623"/>
</svg>
