<svg width="28" height="28" viewBox="0 0 28 28" fill="none" xmlns="http://www.w3.org/2000/svg">
<g clip-path="url(#clip0_84_5)">
<path d="M23.3333 2.33333H22.1667V1.16667C22.1667 0.857247 22.0438 0.560501 21.825 0.341709C21.6062 0.122916 21.3094 0 21 0C20.6906 0 20.3938 0.122916 20.175 0.341709C19.9562 0.560501 19.8333 0.857247 19.8333 1.16667V2.33333H8.16667V1.16667C8.16667 0.857247 8.04375 0.560501 7.82496 0.341709C7.60616 0.122916 7.30942 0 7 0C6.69058 0 6.39383 0.122916 6.17504 0.341709C5.95625 0.560501 5.83333 0.857247 5.83333 1.16667V2.33333H4.66667C3.42899 2.33333 2.242 2.825 1.36683 3.70017C0.491665 4.57534 0 5.76232 0 7L0 23.3333C0 24.571 0.491665 25.758 1.36683 26.6332C2.242 27.5083 3.42899 28 4.66667 28H23.3333C24.571 28 25.758 27.5083 26.6332 26.6332C27.5083 25.758 28 24.571 28 23.3333V7C28 5.76232 27.5083 4.57534 26.6332 3.70017C25.758 2.825 24.571 2.33333 23.3333 2.33333ZM25.6667 23.3333C25.6667 23.9522 25.4208 24.5457 24.9832 24.9832C24.5457 25.4208 23.9522 25.6667 23.3333 25.6667H4.66667C4.04783 25.6667 3.45434 25.4208 3.01675 24.9832C2.57917 24.5457 2.33333 23.9522 2.33333 23.3333V7C2.33333 6.38116 2.57917 5.78767 3.01675 5.35008C3.45434 4.9125 4.04783 4.66667 4.66667 4.66667H5.83333V5.83333C5.83333 6.14275 5.95625 6.4395 6.17504 6.65829C6.39383 6.87708 6.69058 7 7 7C7.30942 7 7.60616 6.87708 7.82496 6.65829C8.04375 6.4395 8.16667 6.14275 8.16667 5.83333V4.66667H19.8333V5.83333C19.8333 6.14275 19.9562 6.4395 20.175 6.65829C20.3938 6.87708 20.6906 7 21 7C21.3094 7 21.6062 6.87708 21.825 6.65829C22.0438 6.4395 22.1667 6.14275 22.1667 5.83333V4.66667H23.3333C23.9522 4.66667 24.5457 4.9125 24.9832 5.35008C25.4208 5.78767 25.6667 6.38116 25.6667 7V23.3333Z" fill="#BF390B"/>
<path d="M22.1667 8.1665H5.83334C5.52392 8.1665 5.22717 8.28942 5.00838 8.50821C4.78959 8.72701 4.66667 9.02375 4.66667 9.33317C4.66667 9.64259 4.78959 9.93934 5.00838 10.1581C5.22717 10.3769 5.52392 10.4998 5.83334 10.4998H22.1667C22.4761 10.4998 22.7728 10.3769 22.9916 10.1581C23.2104 9.93934 23.3333 9.64259 23.3333 9.33317C23.3333 9.02375 23.2104 8.72701 22.9916 8.50821C22.7728 8.28942 22.4761 8.1665 22.1667 8.1665Z" fill="#BF390B"/>
<path d="M8.16667 14H5.83334C5.52392 14 5.22717 14.1229 5.00838 14.3417C4.78959 14.5605 4.66667 14.8572 4.66667 15.1667C4.66667 15.4761 4.78959 15.7728 5.00838 15.9916C5.22717 16.2104 5.52392 16.3333 5.83334 16.3333H8.16667C8.47609 16.3333 8.77284 16.2104 8.99163 15.9916C9.21042 15.7728 9.33334 15.4761 9.33334 15.1667C9.33334 14.8572 9.21042 14.5605 8.99163 14.3417C8.77284 14.1229 8.47609 14 8.16667 14Z" fill="#BF390B"/>
<path d="M8.16667 19.8335H5.83334C5.52392 19.8335 5.22717 19.9564 5.00838 20.1752C4.78959 20.394 4.66667 20.6907 4.66667 21.0002C4.66667 21.3096 4.78959 21.6063 5.00838 21.8251C5.22717 22.0439 5.52392 22.1668 5.83334 22.1668H8.16667C8.47609 22.1668 8.77284 22.0439 8.99163 21.8251C9.21042 21.6063 9.33334 21.3096 9.33334 21.0002C9.33334 20.6907 9.21042 20.394 8.99163 20.1752C8.77284 19.9564 8.47609 19.8335 8.16667 19.8335Z" fill="#BF390B"/>
<path d="M15.1667 14H12.8333C12.5239 14 12.2272 14.1229 12.0084 14.3417C11.7896 14.5605 11.6667 14.8572 11.6667 15.1667C11.6667 15.4761 11.7896 15.7728 12.0084 15.9916C12.2272 16.2104 12.5239 16.3333 12.8333 16.3333H15.1667C15.4761 16.3333 15.7728 16.2104 15.9916 15.9916C16.2104 15.7728 16.3333 15.4761 16.3333 15.1667C16.3333 14.8572 16.2104 14.5605 15.9916 14.3417C15.7728 14.1229 15.4761 14 15.1667 14Z" fill="#BF390B"/>
<path d="M15.1667 19.8335H12.8333C12.5239 19.8335 12.2272 19.9564 12.0084 20.1752C11.7896 20.394 11.6667 20.6907 11.6667 21.0002C11.6667 21.3096 11.7896 21.6063 12.0084 21.8251C12.2272 22.0439 12.5239 22.1668 12.8333 22.1668H15.1667C15.4761 22.1668 15.7728 22.0439 15.9916 21.8251C16.2104 21.6063 16.3333 21.3096 16.3333 21.0002C16.3333 20.6907 16.2104 20.394 15.9916 20.1752C15.7728 19.9564 15.4761 19.8335 15.1667 19.8335Z" fill="#BF390B"/>
<path d="M22.1667 14H19.8333C19.5239 14 19.2272 14.1229 19.0084 14.3417C18.7896 14.5605 18.6667 14.8572 18.6667 15.1667C18.6667 15.4761 18.7896 15.7728 19.0084 15.9916C19.2272 16.2104 19.5239 16.3333 19.8333 16.3333H22.1667C22.4761 16.3333 22.7728 16.2104 22.9916 15.9916C23.2104 15.7728 23.3333 15.4761 23.3333 15.1667C23.3333 14.8572 23.2104 14.5605 22.9916 14.3417C22.7728 14.1229 22.4761 14 22.1667 14Z" fill="#BF390B"/>
<path d="M22.1667 19.8335H19.8333C19.5239 19.8335 19.2272 19.9564 19.0084 20.1752C18.7896 20.394 18.6667 20.6907 18.6667 21.0002C18.6667 21.3096 18.7896 21.6063 19.0084 21.8251C19.2272 22.0439 19.5239 22.1668 19.8333 22.1668H22.1667C22.4761 22.1668 22.7728 22.0439 22.9916 21.8251C23.2104 21.6063 23.3333 21.3096 23.3333 21.0002C23.3333 20.6907 23.2104 20.394 22.9916 20.1752C22.7728 19.9564 22.4761 19.8335 22.1667 19.8335Z" fill="#BF390B"/>
</g>
<defs>
<clipPath id="clip0_84_5">
<rect width="28" height="28" fill="white"/>
</clipPath>
</defs>
</svg>
