<svg width="64" height="64" viewBox="0 0 64 64" fill="none" xmlns="http://www.w3.org/2000/svg">
<path d="M48 40.222V10C48 4.486 43.514 0 38 0C32.486 0 28 4.486 28 10V13.148C24.468 6.528 19.832 1.064 19.518 0.698C18.946 0.03 18 -0.184 17.19 0.17C16.384 0.528 15.906 1.372 16.016 2.248C16.462 5.822 16.262 9.436 15.422 13.04C13.076 9.656 10.626 8 8 8C7.384 8 6.802 8.284 6.424 8.77C6.046 9.256 5.91 9.888 6.06 10.486C7.112 14.692 6.318 16.872 5.4 19.396C4.744 21.202 4 23.248 4 26C4 33.72 10.28 40 18 40C21.916 40 25.456 38.38 28 35.78V40.22C24.682 43.568 23.312 48.292 24.324 53.036C25.452 58.334 29.778 62.622 35.086 63.704C36.05 63.9 37.02 63.996 37.978 63.996C41.2 63.996 44.324 62.906 46.846 60.846C50.122 58.172 52 54.218 52 50C52 46.324 50.552 42.81 48 40.222ZM18 36C12.486 36 8 31.514 8 26C8 23.952 8.538 22.474 9.16 20.764C9.894 18.748 10.7 16.534 10.54 13.362C11.556 14.362 12.792 16.058 14.212 18.896C14.568 19.606 15.292 20.038 16.106 19.998C16.9 19.956 17.594 19.448 17.874 18.702C19.186 15.202 19.958 11.664 20.18 8.132C23.548 12.9 28 20.28 28 26C28 31.514 23.514 36 18 36ZM44.314 57.75C41.978 59.658 38.914 60.402 35.884 59.784C32.11 59.016 29.036 55.968 28.234 52.202C27.46 48.576 28.616 44.978 31.324 42.578C31.754 42.198 32 41.652 32 41.08V10C32 6.692 34.692 4 38 4C41.308 4 44 6.692 44 10V41.08C44 41.652 44.246 42.198 44.674 42.578C46.788 44.45 48 47.156 48 50C48 53.012 46.656 55.836 44.314 57.75Z" fill="#BF390B"/>
<path d="M40 44.368V12H36V44.368C33.678 45.196 32 47.396 32 50C32 53.308 34.692 56 38 56C41.308 56 44 53.308 44 50C44 47.396 42.322 45.196 40 44.368ZM38 52C36.896 52 36 51.102 36 50C36 48.898 36.896 48 38 48C39.104 48 40 48.898 40 50C40 51.102 39.104 52 38 52Z" fill="#BF390B"/>
</svg>
