<svg width="64" height="64" viewBox="0 0 64 64" fill="none" xmlns="http://www.w3.org/2000/svg">
<g clip-path="url(#clip0_166_593)">
<path d="M34.4837 26.5234L30.3763 30.6309L29.4529 29.7075C28.2111 28.4657 26.2051 28.4657 24.9633 29.7075C23.7215 30.9493 23.7215 32.9553 24.9633 34.197L28.1474 37.3811C28.7842 38.0179 29.5802 38.3045 30.4081 38.3045C31.236 38.3045 32.032 37.9861 32.6688 37.3811L39.037 31.013C40.2788 29.7712 40.2788 27.7652 39.037 26.5234C37.7952 25.2816 35.7255 25.2816 34.4837 26.5234Z" fill="white"/>
<path d="M42.9532 25.6637C43.5582 26.6826 44.6089 27.2557 45.7234 27.2557C46.2647 27.2557 46.806 27.1284 47.3154 26.8418C48.8438 25.9503 49.3532 24.008 48.4935 22.4796C47.8567 21.3652 47.0925 20.2826 46.201 19.3274C45.0229 18.0219 43.0169 17.8945 41.7114 19.0727C40.406 20.2508 40.2786 22.2567 41.4567 23.5622C41.998 24.199 42.5074 24.8995 42.9532 25.6637Z" fill="white"/>
<path d="M48.1114 30.2488C46.3602 30.1214 44.8 31.3951 44.6408 33.1463C44.0358 39.7373 38.591 44.7045 31.9681 44.7045C24.9632 44.7045 19.2318 39.005 19.2318 31.9682C19.2318 24.9314 24.9313 19.2319 31.9681 19.2319C32.8278 19.2319 33.6875 19.3274 34.5154 19.4866C36.2666 19.8368 37.9224 18.7224 38.2726 17.003C38.6229 15.2836 37.5084 13.596 35.789 13.2458C34.5472 12.9911 33.2418 12.8637 31.9681 12.8637C21.4288 12.8637 12.8636 21.4289 12.8636 31.9682C12.8636 42.5075 21.4288 51.0727 31.9681 51.0727C41.9025 51.0727 50.0855 43.6219 50.9771 33.7194C51.1363 31.9682 49.8627 30.408 48.1114 30.2488Z" fill="white"/>
<path d="M59.6697 15.9841C58.3323 13.6597 54.7343 12.991 52.8557 11.1124C50.9771 9.23383 50.3085 5.63582 47.9841 4.29851C47.0607 3.75721 45.9144 3.62985 44.7363 3.62985C43.7811 3.62985 42.794 3.69353 41.8388 3.69353C41.0746 3.69353 40.3105 3.62985 39.61 3.47065C37.0627 2.80199 34.7065 0 31.9682 0C29.2299 0 26.8736 2.77015 24.3264 3.47065C23.6259 3.66169 22.8617 3.69353 22.0975 3.69353C21.1423 3.69353 20.1552 3.62985 19.2 3.62985C18.0219 3.62985 16.9075 3.75721 15.9522 4.29851C13.6597 5.63582 12.991 9.20199 11.1124 11.1124C9.20199 12.991 5.63582 13.6597 4.26667 15.9841C2.96119 18.2766 4.17114 21.7154 3.47065 24.3264C2.80199 26.8736 0 29.2299 0 31.9682C0 34.7065 2.77015 37.0627 3.47065 39.61C4.17114 42.2209 2.96119 45.6597 4.29851 47.9522C5.63582 50.2766 9.23383 50.9453 11.1124 52.8239C12.991 54.7025 13.6597 58.3005 15.9841 59.6378C16.9075 60.1791 18.0537 60.3065 19.2318 60.3065C20.1871 60.3065 21.1741 60.2428 22.1294 60.2428C22.8935 60.2428 23.6577 60.3065 24.3582 60.4657C26.9055 61.1343 29.2617 63.9363 32 63.9363C34.7383 63.9363 37.0945 61.1662 39.6418 60.4657C40.3423 60.2746 41.1065 60.2428 41.8706 60.2428C42.8259 60.2428 43.8129 60.3065 44.7682 60.3065C45.9463 60.3065 47.0607 60.1791 48.0159 59.6378C50.3403 58.3005 51.009 54.7025 52.8876 52.8239C54.7662 50.9453 58.3642 50.2766 59.7015 47.9522C61.0388 45.6597 59.8289 42.2209 60.5294 39.61C61.198 37.0627 64 34.7065 64 31.9682C64 29.2299 61.2299 26.8736 60.5294 24.3264C59.7652 21.7154 60.9751 18.2766 59.6697 15.9841ZM56.7085 33.0189C55.8806 34.3244 54.8617 35.9483 54.3204 37.9542C53.7791 40.0239 53.8428 41.9662 53.9065 43.5264C53.9065 43.8448 53.9383 44.2906 53.9383 44.6408C53.6199 44.8318 53.2378 45.0229 52.9194 45.1821C51.5503 45.9144 49.8308 46.806 48.3025 48.3025C46.806 49.799 45.9144 51.5184 45.1821 52.9194C45.0229 53.2378 44.8318 53.6199 44.6408 53.9383C44.2587 53.9383 43.8766 53.9065 43.5264 53.9065C42.9532 53.8746 42.3801 53.8746 41.807 53.8746C40.3105 53.8746 39.1005 54.0338 37.9542 54.3204C35.9483 54.8617 34.3244 55.8806 33.0189 56.7085C32.7005 56.8995 32.2866 57.1542 31.9682 57.3771C31.6179 57.1861 31.2358 56.9314 30.9174 56.7085C29.6119 55.8806 27.9881 54.8617 25.9821 54.3204C24.8358 54.002 23.594 53.8746 22.0975 53.8746C21.5244 53.8746 20.9512 53.9065 20.3781 53.9065C19.996 53.9065 19.6139 53.9383 19.2637 53.9383C19.0726 53.6199 18.8816 53.2378 18.7224 52.9194C17.9901 51.5503 17.0985 49.8309 15.602 48.3025C14.1055 46.806 12.3861 45.9144 10.9851 45.1821C10.6667 45.0229 10.2846 44.8318 9.96617 44.6408C9.96617 44.2906 9.99801 43.8448 9.99801 43.5264C10.0617 41.9662 10.1254 40.0239 9.58408 37.9542C9.04279 35.9483 8.02388 34.3244 7.19602 33.0189C7.00497 32.7005 6.75025 32.2866 6.52736 31.9682C6.71841 31.6179 6.97313 31.2358 7.19602 30.9174C8.02388 29.6119 9.04279 27.9881 9.58408 25.9821C10.1254 23.9124 10.0617 21.9702 9.99801 20.41C9.99801 20.0915 9.96617 19.6458 9.96617 19.2955C10.2846 19.1045 10.6667 18.9134 10.9851 18.7542C12.3542 18.0219 14.0736 17.1304 15.602 15.6338C17.0985 14.1373 17.9901 12.4179 18.7224 11.0169C18.8816 10.6985 19.0726 10.3164 19.2637 9.99801C19.6458 9.99801 20.0279 10.0299 20.3781 10.0299C20.9831 10.0299 21.5562 10.0617 22.0975 10.0617C23.594 10.0617 24.804 9.90249 25.9503 9.61592C27.9562 9.07463 29.5801 8.05572 30.8856 7.22786C31.204 7.03682 31.6179 6.78209 31.9363 6.55921C32.2866 6.75025 32.6687 7.00498 32.9871 7.22786C34.2925 8.05572 35.9164 9.07463 37.9224 9.61592C39.0687 9.93433 40.3105 10.0617 41.807 10.0617C42.3801 10.0617 42.9532 10.0299 43.5264 10.0299C43.9085 10.0299 44.2906 9.99801 44.6408 9.99801C44.8318 10.3164 45.0229 10.6985 45.1821 11.0169C45.9144 12.3861 46.806 14.1055 48.3025 15.6338C49.799 17.1304 51.5184 18.0219 52.9194 18.7542C53.2378 18.9134 53.6199 19.1045 53.9383 19.2955C53.9383 19.6458 53.9065 20.0915 53.9065 20.41C53.8428 21.9702 53.7791 23.9124 54.3204 25.9821C54.8617 27.9881 55.8806 29.6119 56.7085 30.9174C56.8995 31.2358 57.1542 31.6498 57.3771 31.9682C57.1861 32.3184 56.9314 32.7005 56.7085 33.0189Z" fill="white"/>
</g>
<defs>
<clipPath id="clip0_166_593">
<rect width="64" height="64" fill="white"/>
</clipPath>
</defs>
</svg>
