<svg width="296" height="56" viewBox="0 0 296 56" fill="none" xmlns="http://www.w3.org/2000/svg">
<path d="M26.0979 5.8541C26.6966 4.01148 29.3034 4.01148 29.9021 5.8541L33.8374 17.9656C34.1051 18.7896 34.873 19.3475 35.7395 19.3475H48.4742C50.4117 19.3475 51.2172 21.8268 49.6498 22.9656L39.3472 30.4509C38.6462 30.9601 38.3529 31.8629 38.6206 32.6869L42.5559 44.7984C43.1546 46.641 41.0456 48.1732 39.4782 47.0344L29.1756 39.5492C28.4746 39.0399 27.5254 39.0399 26.8244 39.5492L16.5218 47.0344C14.9544 48.1732 12.8454 46.641 13.4441 44.7984L17.3794 32.6869C17.6471 31.8629 17.3538 30.9601 16.6528 30.4509L6.35021 22.9656C4.78278 21.8268 5.58834 19.3475 7.52578 19.3475H20.2605C21.127 19.3475 21.8949 18.7896 22.1626 17.9656L26.0979 5.8541Z" fill="#FFB800"/>
<path d="M86.0979 5.8541C86.6966 4.01148 89.3034 4.01148 89.9021 5.8541L93.8374 17.9656C94.1051 18.7896 94.873 19.3475 95.7395 19.3475H108.474C110.412 19.3475 111.217 21.8268 109.65 22.9656L99.3472 30.4509C98.6462 30.9601 98.3529 31.8629 98.6206 32.6869L102.556 44.7984C103.155 46.641 101.046 48.1732 99.4782 47.0344L89.1756 39.5492C88.4746 39.0399 87.5254 39.0399 86.8244 39.5492L76.5218 47.0344C74.9544 48.1732 72.8454 46.641 73.4441 44.7984L77.3794 32.6869C77.6471 31.8629 77.3538 30.9601 76.6528 30.4509L66.3502 22.9656C64.7828 21.8268 65.5883 19.3475 67.5258 19.3475H80.2605C81.127 19.3475 81.8949 18.7896 82.1626 17.9656L86.0979 5.8541Z" fill="#CDCDCD"/>
<path d="M146.098 5.8541C146.697 4.01148 149.303 4.01148 149.902 5.8541L153.837 17.9656C154.105 18.7896 154.873 19.3475 155.739 19.3475H168.474C170.412 19.3475 171.217 21.8268 169.65 22.9656L159.347 30.4509C158.646 30.9601 158.353 31.8629 158.621 32.6869L162.556 44.7984C163.155 46.641 161.046 48.1732 159.478 47.0344L149.176 39.5492C148.475 39.0399 147.525 39.0399 146.824 39.5492L136.522 47.0344C134.954 48.1732 132.845 46.641 133.444 44.7984L137.379 32.6869C137.647 31.8629 137.354 30.9601 136.653 30.4509L126.35 22.9656C124.783 21.8268 125.588 19.3475 127.526 19.3475H140.261C141.127 19.3475 141.895 18.7896 142.163 17.9656L146.098 5.8541Z" fill="#CDCDCD"/>
<path d="M206.098 5.8541C206.697 4.01148 209.303 4.01148 209.902 5.8541L213.837 17.9656C214.105 18.7896 214.873 19.3475 215.739 19.3475H228.474C230.412 19.3475 231.217 21.8268 229.65 22.9656L219.347 30.4509C218.646 30.9601 218.353 31.8629 218.621 32.6869L222.556 44.7984C223.155 46.641 221.046 48.1732 219.478 47.0344L209.176 39.5492C208.475 39.0399 207.525 39.0399 206.824 39.5492L196.522 47.0344C194.954 48.1732 192.845 46.641 193.444 44.7984L197.379 32.6869C197.647 31.8629 197.354 30.9601 196.653 30.4509L186.35 22.9656C184.783 21.8268 185.588 19.3475 187.526 19.3475H200.261C201.127 19.3475 201.895 18.7896 202.163 17.9656L206.098 5.8541Z" fill="#CDCDCD"/>
<path d="M266.098 5.8541C266.697 4.01148 269.303 4.01148 269.902 5.8541L273.837 17.9656C274.105 18.7896 274.873 19.3475 275.739 19.3475H288.474C290.412 19.3475 291.217 21.8268 289.65 22.9656L279.347 30.4509C278.646 30.9601 278.353 31.8629 278.621 32.6869L282.556 44.7984C283.155 46.641 281.046 48.1732 279.478 47.0344L269.176 39.5492C268.475 39.0399 267.525 39.0399 266.824 39.5492L256.522 47.0344C254.954 48.1732 252.845 46.641 253.444 44.7984L257.379 32.6869C257.647 31.8629 257.354 30.9601 256.653 30.4509L246.35 22.9656C244.783 21.8268 245.588 19.3475 247.526 19.3475H260.261C261.127 19.3475 261.895 18.7896 262.163 17.9656L266.098 5.8541Z" fill="#CDCDCD"/>
</svg>
