<svg width="32" height="56" viewBox="0 0 32 56" fill="none" xmlns="http://www.w3.org/2000/svg">
<path d="M15.8238 49.66C12.5438 49.66 9.68383 49.1 7.24383 47.98C4.80383 46.82 2.58383 45.08 0.583828 42.76L6.52383 36.7C7.84383 38.3 9.30383 39.56 10.9038 40.48C12.5038 41.36 14.3438 41.8 16.4238 41.8C18.3838 41.8 19.9038 41.44 20.9838 40.72C22.0638 39.96 22.6038 38.9 22.6038 37.54C22.6038 36.38 22.2438 35.44 21.5238 34.72C20.8438 34 19.9238 33.38 18.7638 32.86C17.6038 32.34 16.3238 31.84 14.9238 31.36C13.5238 30.88 12.1238 30.34 10.7238 29.74C9.36383 29.1 8.10383 28.32 6.94383 27.4C5.78383 26.44 4.84383 25.26 4.12383 23.86C3.40383 22.42 3.04383 20.62 3.04383 18.46C3.04383 15.86 3.66383 13.62 4.90383 11.74C6.18383 9.86 7.92383 8.44 10.1238 7.48C12.3238 6.48 14.8438 5.98 17.6838 5.98C20.4438 5.98 23.0238 6.5 25.4238 7.54C27.8238 8.58 29.7838 10 31.3038 11.8L25.3638 17.86C24.1238 16.54 22.8638 15.54 21.5838 14.86C20.3438 14.14 18.9838 13.78 17.5038 13.78C15.7838 13.78 14.4438 14.1 13.4838 14.74C12.5238 15.38 12.0438 16.32 12.0438 17.56C12.0438 18.64 12.4038 19.52 13.1238 20.2C13.8438 20.84 14.7838 21.4 15.9438 21.88C17.1438 22.36 18.4238 22.84 19.7838 23.32C21.1838 23.8 22.5838 24.36 23.9838 25C25.3838 25.64 26.6638 26.46 27.8238 27.46C29.0238 28.42 29.9838 29.66 30.7038 31.18C31.4238 32.66 31.7838 34.5 31.7838 36.7C31.7838 40.74 30.3638 43.92 27.5238 46.24C24.7238 48.52 20.8238 49.66 15.8238 49.66ZM13.8438 44.98H20.4438V55.06H13.8438V44.98ZM20.4438 10.3H13.8438V0.579998H20.4438V10.3Z" fill="#BF390B"/>
</svg>
