<svg width="64" height="64" viewBox="0 0 64 64" fill="none" xmlns="http://www.w3.org/2000/svg">
<g clip-path="url(#clip0_166_551)">
<path d="M32 64C31.7831 63.996 31.5678 63.9624 31.36 63.9C23.9705 61.4414 17.5433 56.7174 12.991 50.3987C8.43869 44.08 5.99259 36.4878 6.00002 28.7V12C6.00002 11.4696 6.21073 10.9609 6.5858 10.5858C6.96088 10.2107 7.46958 10 8.00002 10C12.1779 10.0149 16.317 9.19859 20.1764 7.59853C24.0357 5.99847 27.5383 3.64666 30.48 0.680007C30.8817 0.268142 31.4253 0.0249522 32 6.9954e-06C32.2671 -0.0121454 32.5339 0.0293818 32.7847 0.122133C33.0355 0.214884 33.2651 0.356976 33.46 0.540007C36.4026 3.53197 39.9107 5.90909 43.7802 7.53312C47.6497 9.15716 51.8035 9.9957 56 10C56.5304 10 57.0392 10.2107 57.4142 10.5858C57.7893 10.9609 58 11.4696 58 12V28.7C58.0285 36.5048 55.5922 44.1194 51.0383 50.4581C46.4845 56.7968 40.0458 61.536 32.64 64C32.4277 64.0288 32.2124 64.0288 32 64ZM10 14V28.76C10.0073 35.5834 12.1256 42.2374 16.0645 47.8091C20.0034 53.3808 25.5698 57.5973 32 59.88C38.4399 57.5939 44.0131 53.3683 47.9528 47.7846C51.8925 42.201 54.0052 35.5336 54 28.7V14C45.8191 13.5556 38.0448 10.2904 32 4.76001C25.9525 10.2862 18.1798 13.5507 10 14Z" fill="#BF390B"/>
<path d="M28 20H36V26.36C36 26.795 35.8272 27.2121 35.5197 27.5197C35.2121 27.8272 34.795 28 34.36 28H29.64C29.205 28 28.7879 27.8272 28.4803 27.5197C28.1728 27.2121 28 26.795 28 26.36V20Z" fill="#BF390B"/>
<path d="M40.58 46H23.42C21.9841 45.9947 20.6086 45.422 19.5933 44.4067C18.578 43.3914 18.0053 42.0159 18 40.58V23.42C18.0053 21.9841 18.578 20.6086 19.5933 19.5933C20.6086 18.578 21.9841 18.0053 23.42 18H40.58C42.0159 18.0053 43.3914 18.578 44.4067 19.5933C45.422 20.6086 45.9947 21.9841 46 23.42V40.58C45.9947 42.0159 45.422 43.3914 44.4067 44.4067C43.3914 45.422 42.0159 45.9947 40.58 46ZM23.42 22C23.0434 22 22.6822 22.1496 22.4159 22.4159C22.1496 22.6822 22 23.0434 22 23.42V40.58C22 40.9566 22.1496 41.3178 22.4159 41.5841C22.6822 41.8504 23.0434 42 23.42 42H40.58C40.9566 42 41.3178 41.8504 41.5841 41.5841C41.8504 41.3178 42 40.9566 42 40.58V23.42C42 23.0434 41.8504 22.6822 41.5841 22.4159C41.3178 22.1496 40.9566 22 40.58 22H23.42Z" fill="#BF390B"/>
</g>
<defs>
<clipPath id="clip0_166_551">
<rect width="64" height="64" fill="white"/>
</clipPath>
</defs>
</svg>
