<svg width="64" height="64" viewBox="0 0 64 64" fill="none" xmlns="http://www.w3.org/2000/svg">
<path d="M23.3333 21.3333V19.3333H21.3333H18.6666C15.6608 19.3333 12.7781 18.1393 10.6527 16.0139C8.52731 13.8885 7.33327 11.0058 7.33327 7.99999C7.33327 7.82318 7.40351 7.65361 7.52853 7.52859C7.65355 7.40357 7.82312 7.33333 7.99993 7.33333H55.9999C56.1768 7.33333 56.3463 7.40357 56.4713 7.52859C56.5964 7.65361 56.6666 7.82319 56.6666 7.99999C56.6666 11.0058 55.4726 13.8885 53.3471 16.0139C51.2217 18.1393 48.3391 19.3333 45.3333 19.3333H42.6666H40.6666V21.3333V26.6667V28.6667H42.6666H50.6666H50.6868L50.7069 28.6663C50.8629 28.6631 51.015 28.7148 51.1368 28.8122C51.2579 28.9091 51.3414 29.0451 51.373 29.1968C51.3732 29.1977 51.3734 29.1987 51.3736 29.1996L56.6996 55.8295C56.7139 55.9226 56.7083 56.0177 56.6831 56.1087C56.6565 56.2044 56.6089 56.293 56.5438 56.368L56.5215 56.3936L56.5 56.42C56.438 56.4965 56.3598 56.5583 56.271 56.6009C56.1836 56.643 56.088 56.6654 55.991 56.6667H7.99993H7.9866L7.97327 56.6668C7.87255 56.6682 7.77284 56.6467 7.68163 56.604C7.59041 56.5612 7.51005 56.4984 7.4466 56.4202L7.4411 56.4134L7.43554 56.4067C7.37269 56.3305 7.32753 56.2414 7.30332 56.1457C7.27926 56.0506 7.27649 55.9514 7.29518 55.8551C7.2953 55.8545 7.29542 55.8539 7.29554 55.8533L12.6263 29.1996C12.6264 29.1988 12.6266 29.198 12.6268 29.1972C12.6583 29.0453 12.7419 28.9091 12.863 28.8122C12.9849 28.7148 13.137 28.6631 13.2929 28.6663L13.3131 28.6667H13.3333H21.3333H23.3333V26.6667V21.3333ZM26.6666 19.3333H24.6666V21.3333V26.6667V28.6667H26.6666H37.3333H39.3333V26.6667V21.3333V19.3333H37.3333H26.6666ZM26.4442 50.9814C28.0887 52.0802 30.0221 52.6667 31.9999 52.6667C34.6521 52.6667 37.1956 51.6131 39.071 49.7377C40.9464 47.8624 41.9999 45.3188 41.9999 42.6667C41.9999 40.6889 41.4134 38.7555 40.3146 37.111C39.2158 35.4665 37.654 34.1847 35.8268 33.4279C33.9995 32.671 31.9888 32.473 30.049 32.8588C28.1092 33.2447 26.3274 34.1971 24.9289 35.5956C23.5303 36.9941 22.5779 38.776 22.1921 40.7158C21.8062 42.6556 22.0043 44.6662 22.7611 46.4935C23.518 48.3208 24.7997 49.8825 26.4442 50.9814Z" stroke="#BF390B" stroke-width="4"/>
</svg>
