<svg width="64" height="64" viewBox="0 0 64 64" fill="none" xmlns="http://www.w3.org/2000/svg">
<path d="M21.4738 34.854V10.5946C21.4738 9.45917 21.9248 8.37027 22.7277 7.56741C23.5305 6.76455 24.6194 6.31351 25.7548 6.31351C26.8902 6.31351 27.9792 6.76455 28.782 7.56741C29.5849 8.37027 30.0359 9.45917 30.0359 10.5946V32" stroke="#BF390B" stroke-width="5" stroke-linecap="round" stroke-linejoin="round"/>
<path d="M30.036 30.573V24.8649C30.036 23.7294 30.4871 22.6405 31.2899 21.8377C32.0928 21.0348 33.1817 20.5838 34.3171 20.5838C35.4525 20.5838 36.5414 21.0348 37.3443 21.8377C38.1471 22.6405 38.5982 23.7294 38.5982 24.8649V32" stroke="#BF390B" stroke-width="5" stroke-linecap="round" stroke-linejoin="round"/>
<path d="M38.5981 27.7189C38.5981 26.5835 39.0492 25.4946 39.852 24.6917C40.6549 23.8889 41.7438 23.4378 42.8792 23.4378C44.0146 23.4378 45.1035 23.8889 45.9064 24.6917C46.7093 25.4946 47.1603 26.5835 47.1603 27.7189V32" stroke="#BF390B" stroke-width="5" stroke-linecap="round" stroke-linejoin="round"/>
<path d="M47.1603 30.573C47.1603 29.4376 47.6114 28.3487 48.4142 27.5458C49.2171 26.7429 50.306 26.2919 51.4414 26.2919C52.5768 26.2919 53.6657 26.7429 54.4686 27.5458C55.2715 28.3487 55.7225 29.4376 55.7225 30.573V43.4162C55.7225 47.9579 53.9183 52.3135 50.7069 55.5249C47.4955 58.7364 43.1398 60.5405 38.5982 60.5405H32.8901H33.4837C30.6477 60.541 27.856 59.8372 25.3593 58.4922C22.8626 57.1471 20.739 55.2031 19.1792 52.8346L18.6198 51.9784C17.7293 50.6113 14.6041 45.1629 9.24138 35.6304C8.69469 34.6586 8.54865 33.512 8.83434 32.4343C9.12003 31.3565 9.8149 30.4328 10.7712 29.8595C11.7897 29.2483 12.9832 28.995 14.1622 29.1398C15.3412 29.2846 16.438 29.8192 17.2784 30.6586L21.4739 34.8541" stroke="#BF390B" stroke-width="5" stroke-linecap="round" stroke-linejoin="round"/>
<path d="M12.9117 6.31351L10.0576 3.45946" stroke="#BF390B" stroke-width="5" stroke-linecap="round" stroke-linejoin="round"/>
<path d="M10.0577 17.7297H7.20361" stroke="#BF390B" stroke-width="5" stroke-linecap="round" stroke-linejoin="round"/>
<path d="M38.5981 6.31351L41.4522 3.45946" stroke="#BF390B" stroke-width="5" stroke-linecap="round" stroke-linejoin="round"/>
<path d="M41.4523 14.8757H44.3063" stroke="#BF390B" stroke-width="5" stroke-linecap="round" stroke-linejoin="round"/>
</svg>
