<svg width="49" height="48" viewBox="0 0 49 48" fill="none" xmlns="http://www.w3.org/2000/svg">
<path d="M37.1006 38.1006H11.8994C11.0703 38.1006 10.3994 37.4297 10.3994 36.6006V11.3994C10.3994 10.5703 11.0703 9.89941 11.8994 9.89941H37.1006C37.9297 9.89941 38.6006 10.5703 38.6006 11.3994V36.6006C38.6006 37.4297 37.9297 38.1006 37.1006 38.1006ZM13.3994 35.1006H35.6006V12.8994H13.3994V35.1006Z" fill="#111111"/>
<path d="M3.5 12.8994C2.6709 12.8994 2 12.2285 2 11.3994V3C2 2.1709 2.6709 1.5 3.5 1.5H11.8994C12.7285 1.5 13.3994 2.1709 13.3994 3C13.3994 3.8291 12.7285 4.5 11.8994 4.5H5V11.3994C5 12.2285 4.3291 12.8994 3.5 12.8994Z" fill="#111111"/>
<path d="M45.5 12.8994C44.6709 12.8994 44 12.2285 44 11.3994V4.5H37.1006C36.2715 4.5 35.6006 3.8291 35.6006 3C35.6006 2.1709 36.2715 1.5 37.1006 1.5H45.5C46.3291 1.5 47 2.1709 47 3V11.3994C47 12.2285 46.3291 12.8994 45.5 12.8994Z" fill="#111111"/>
<path d="M11.8994 46.5H3.5C2.6709 46.5 2 45.8291 2 45V36.6006C2 35.7715 2.6709 35.1006 3.5 35.1006C4.3291 35.1006 5 35.7715 5 36.6006V43.5H11.8994C12.7285 43.5 13.3994 44.1709 13.3994 45C13.3994 45.8291 12.7285 46.5 11.8994 46.5Z" fill="#111111"/>
<path d="M45.5 46.5H37.1006C36.2715 46.5 35.6006 45.8291 35.6006 45C35.6006 44.1709 36.2715 43.5 37.1006 43.5H44V36.6006C44 35.7715 44.6709 35.1006 45.5 35.1006C46.3291 35.1006 47 35.7715 47 36.6006V45C47 45.8291 46.3291 46.5 45.5 46.5Z" fill="#111111"/>
</svg>
